<?xml version="1.0" encoding="UTF-8"?>
<svg id="Layer_2" data-name="Layer 2" xmlns="http://www.w3.org/2000/svg" viewBox="0 0 304.39 67.27">
  <defs>
    <style>
      .cls-1 {
        stroke-width: 0px;
      }
    </style>
  </defs>
  <g id="Layer_1-2" data-name="Layer 1">
    <g>
      <path class="cls-1" d="M25.57,1.86c-1.52-1.24-3.56-1.86-6.12-1.86s-4.48.62-6.01,1.86c-1.54,1.24-2.31,2.9-2.31,4.99s.77,3.82,2.31,5.06c1.53,1.23,3.54,1.85,6.01,1.85s4.6-.62,6.12-1.85c1.51-1.24,2.27-2.93,2.27-5.06s-.76-3.75-2.27-4.99Z"/>
      <g>
        <path class="cls-1" d="M22.01,33.57v.43h14.34v10.33h-14.34v21.84H7.36v-21.84H0v-10.33h7.37c.02-3.49.79-6.43,2.29-8.83,1.54-2.44,3.8-4.29,6.79-5.54,2.98-1.25,6.63-1.87,10.94-1.87,1.83,0,3.51.12,5.02.34,1.52.23,3.15.57,4.9,1.02v10.21c-1.32-.37-2.65-.65-3.97-.86-1.32-.21-2.73-.31-4.22-.31-2.78,0-4.65.43-5.63,1.32-.99.88-1.48,2.25-1.48,4.1Z"/>
        <path class="cls-1" d="M87.26,66.18h-14.72l-1.16-7.22c-.04.07-.08.14-.12.21-1.66,2.67-3.68,4.67-6.05,6.02-2.36,1.34-4.98,2.01-7.84,2.01-3.41,0-6.34-.7-8.8-2.11-2.45-1.41-4.32-3.4-5.6-5.98-1.28-2.59-1.92-5.58-1.92-9v-20.6h14.66v18.49c0,2.35.6,4.16,1.79,5.44,1.2,1.28,2.88,1.92,5.06,1.92,1.66,0,3.05-.32,4.16-.96,1.11-.64,1.95-1.58,2.53-2.81.57-1.24.86-2.76.86-4.55v-17.53h14.66v23.74l2.49,12.93Z"/>
        <path class="cls-1" d="M125.22,28.8v12.48c-1.37-.25-2.61-.44-3.74-.54-1.14-.11-2.17-.16-3.11-.16-1.75,0-3.37.33-4.86.99-1.5.66-2.7,1.79-3.62,3.39-.92,1.6-1.37,3.81-1.37,6.63v14.59h-14.66v-24.13l-2.5-12.54h14.98l1.6,9.5c.59-1.68,1.31-3.21,2.18-4.61,1.15-1.85,2.59-3.32,4.32-4.38,1.72-1.07,3.85-1.6,6.36-1.6.69,0,1.39.03,2.12.09.72.07,1.49.16,2.3.29Z"/>
        <path class="cls-1" d="M129.85,16.9h14.66v49.28h-14.66V16.9Z"/>
        <path class="cls-1" d="M198.1,66.18h-14.72l-1.16-7.22c-.04.07-.08.14-.12.21-1.66,2.67-3.68,4.67-6.05,6.02-2.36,1.34-4.98,2.01-7.84,2.01-3.41,0-6.34-.7-8.8-2.11-2.45-1.41-4.32-3.4-5.6-5.98-1.28-2.59-1.92-5.58-1.92-9v-20.6h14.66v18.49c0,2.35.6,4.16,1.79,5.44,1.2,1.28,2.88,1.92,5.06,1.92,1.66,0,3.05-.32,4.16-.96,1.11-.64,1.95-1.58,2.53-2.81.57-1.24.86-2.76.86-4.55v-17.53h14.66v23.74l2.49,12.93Z"/>
        <path class="cls-1" d="M249.24,45.57v20.61h-14.72v-18.5c0-2.39-.63-4.22-1.88-5.5-1.26-1.28-3.04-1.92-5.35-1.92-1.62,0-3.03.34-4.22,1.02-1.2.68-2.11,1.64-2.75,2.88-.64,1.24-.96,2.73-.96,4.48v17.54h-14.66v-23.75l-2.5-12.92h14.66l1.2,7.3c.08-.13.16-.26.24-.39,1.68-2.65,3.74-4.64,6.18-5.99,2.43-1.34,5.07-2.01,7.93-2.01,3.59,0,6.61.7,9.09,2.11,2.47,1.41,4.38,3.4,5.73,5.98,1.34,2.59,2.01,5.6,2.01,9.06Z"/>
        <path class="cls-1" d="M304.39,29.51h-15.24l-.88,6.77c-1.6-2.32-3.56-4.15-5.87-5.49-2.71-1.58-5.81-2.37-9.31-2.37s-6.68.8-9.41,2.4c-2.73,1.6-4.85,3.86-6.37,6.78-1.51,2.92-2.27,6.35-2.27,10.27s.76,7.23,2.27,10.15c1.52,2.92,3.64,5.19,6.37,6.81s5.87,2.44,9.41,2.44,6.6-.8,9.31-2.4c2.31-1.36,4.26-3.21,5.85-5.53l.9,6.84h15.24l-2.44-18.37,2.44-18.3ZM282.24,55.11c-1.45.72-2.96,1.08-4.54,1.08s-2.9-.36-4.1-1.08c-1.19-.73-2.12-1.71-2.78-2.95-.66-1.24-.99-2.66-.99-4.29s.33-3.06.99-4.32c.66-1.25,1.59-2.25,2.78-2.97,1.2-.73,2.56-1.09,4.1-1.09s3.09.36,4.54,1.09c1.45.72,2.73,1.72,3.84,2.97,1.11,1.26,1.92,2.7,2.43,4.32-.51,1.63-1.32,3.05-2.43,4.29s-2.39,2.22-3.84,2.95Z"/>
      </g>
    </g>
  </g>
</svg>