<?xml version="1.0" encoding="UTF-8"?>
<svg id="Layer_2" data-name="Layer 2" xmlns="http://www.w3.org/2000/svg" viewBox="0 0 232.87 229.16">
  <defs>
    <style>
      .cls-1 {
        fill: #fff;
        stroke-width: 0px;
      }
    </style>
  </defs>
  <g id="Layer_1-2" data-name="Layer 1">
    <g>
      <path class="cls-1" d="M150.37,161.12c-3.67,38.98-37.52,68.87-76.66,68.03-.2,0-.4,0-.61-.02-3.05-.09-4.23-3.98-1.83-5.86,11.75-9.21,18.97-23.94,17.74-40.29-1.71-22.68-20.12-41.1-42.8-42.83-16.35-1.24-31.09,5.97-40.31,17.73-1.91,2.44-5.78,1.16-5.87-1.94-.02-.89-.03-1.79-.03-2.69.28-38.86,30.77-71.66,69.51-74.58,46.71-3.52,85.27,35.57,80.85,82.45Z"/>
      <circle class="cls-1" cx="53.67" cy="39.65" r="28.79"/>
      <circle class="cls-1" cx="190.01" cy="176.36" r="28.79"/>
      <circle class="cls-1" cx="198.88" cy="95.93" r="33.99"/>
      <circle class="cls-1" cx="135" cy="33.99" r="33.99"/>
    </g>
  </g>
</svg>