<?xml version="1.0" standalone="no"?>
<!DOCTYPE svg PUBLIC "-//W3C//DTD SVG 20010904//EN"
 "http://www.w3.org/TR/2001/REC-SVG-20010904/DTD/svg10.dtd">
<svg version="1.0" xmlns="http://www.w3.org/2000/svg"
 width="225.000000pt" height="225.000000pt" viewBox="0 0 225.000000 225.000000"
 preserveAspectRatio="xMidYMid meet">

<g transform="translate(0.000000,225.000000) scale(0.100000,-0.100000)"
fill="#000000" stroke="none">
<path d="M382 2138 c-54 -143 -68 -364 -32 -499 16 -62 18 -93 13 -195 l-6
-122 -38 -11 c-35 -11 -56 -27 -47 -36 2 -2 25 2 50 10 l46 14 7 -27 c4 -15
20 -55 37 -90 28 -61 29 -64 12 -83 -15 -17 -15 -19 -1 -19 9 0 19 5 22 11 4
6 30 -12 63 -44 32 -29 78 -66 104 -81 31 -18 48 -35 48 -47 0 -21 -36 -133
-104 -322 -96 -267 -77 -435 57 -502 66 -33 156 -35 206 -4 32 19 34 19 52 3
13 -11 42 -19 79 -22 52 -4 61 -2 83 20 l24 24 33 -29 c30 -26 38 -29 86 -25
32 3 62 12 73 22 18 17 21 17 46 0 19 -12 46 -18 89 -17 70 1 118 18 167 60
24 21 49 32 84 37 75 9 164 58 224 121 98 103 134 232 113 398 -21 166 -65
247 -134 247 -73 0 -90 -66 -69 -259 14 -123 7 -165 -34 -221 -25 -34 -101
-100 -115 -100 -4 0 -10 33 -13 73 -7 78 -46 226 -76 285 -21 43 -56 143 -65
187 -5 28 -2 31 46 54 28 13 77 51 109 83 46 46 63 58 79 53 22 -7 26 5 8 23
-8 8 -5 25 15 69 14 32 29 70 32 86 8 30 17 32 63 16 56 -19 59 -2 4 22 l-53
23 7 54 c3 29 1 95 -6 146 -12 88 -11 97 14 197 21 78 28 138 32 244 7 181 3
189 -86 193 -94 5 -217 -24 -314 -72 l-83 -42 -79 18 c-98 22 -241 23 -314 3
-109 -30 -108 -30 -201 19 -101 54 -212 94 -285 102 l-52 6 -20 -54z m130 -12
c94 -28 193 -67 237 -94 l31 -19 -40 -22 c-60 -34 -53 -68 8 -37 42 21 140 54
212 70 87 21 176 20 288 -3 l93 -20 68 35 c88 44 181 71 280 80 l79 6 7 -53
c8 -69 -10 -245 -35 -345 -17 -67 -19 -97 -13 -235 l6 -159 -61 0 c-35 0 -62
-4 -62 -10 0 -5 25 -10 56 -10 63 0 61 7 23 -95 -30 -80 -30 -80 -76 -56 -57
29 -146 61 -152 56 -9 -9 13 -23 79 -50 98 -41 102 -47 55 -96 -63 -64 -152
-117 -255 -151 -90 -30 -103 -32 -255 -32 -168 -1 -239 11 -344 57 -66 29
-170 98 -211 141 -41 44 -43 42 83 87 48 18 90 36 94 42 10 16 -59 -1 -139
-34 -39 -16 -78 -27 -85 -24 -17 6 -63 103 -63 133 0 21 4 22 65 22 37 0 65 4
65 10 0 10 -33 13 -102 10 l-38 -2 0 127 c0 90 -5 145 -17 189 -26 92 -23 273
7 404 13 56 25 102 26 102 2 0 41 -11 86 -24z m380 -1257 c35 -7 122 -12 193
-12 107 0 147 5 230 27 118 31 115 31 115 9 0 -10 19 -70 42 -133 63 -179 89
-285 95 -395 5 -88 3 -106 -16 -150 -31 -73 -75 -100 -163 -100 -50 0 -71 4
-79 15 -16 25 -1 86 52 203 65 143 89 211 89 256 0 47 -14 30 -35 -44 -14 -48
-116 -282 -156 -357 -5 -10 -9 -23 -9 -30 0 -23 -33 -48 -66 -48 -51 0 -81 16
-92 49 -11 32 -29 149 -35 238 l-4 52 36 3 c26 2 37 8 39 22 3 16 -1 17 -35
12 -21 -4 -53 -2 -70 3 -41 12 -55 -5 -25 -29 20 -16 22 -29 24 -165 3 -144 2
-147 -21 -166 -29 -23 -59 -24 -91 -2 -33 22 -34 24 -71 118 -18 44 -48 107
-68 140 -44 73 -76 147 -85 198 -10 57 -29 47 -24 -13 4 -36 26 -92 76 -193
102 -204 104 -251 12 -263 -63 -8 -134 20 -174 69 -31 39 -31 40 -30 150 0
110 1 116 61 292 33 99 66 208 73 241 l12 61 68 -23 c38 -12 97 -28 132 -35z
m976 8 c48 -51 83 -245 64 -354 -28 -161 -153 -297 -293 -319 -38 -6 -42 -5
-36 10 4 10 7 33 7 51 0 30 6 38 56 71 62 41 117 107 135 161 8 26 9 68 4 142
-12 159 -11 227 4 245 18 22 34 20 59 -7z"/>
<path d="M1527 1904 c-4 -4 22 -34 56 -68 35 -34 75 -77 89 -96 22 -29 27 -32
33 -18 9 24 -45 100 -107 148 -51 41 -60 45 -71 34z"/>
<path d="M529 1851 c-33 -33 -79 -116 -79 -143 0 -31 17 -38 26 -10 10 30 36
76 65 114 21 27 25 38 16 46 -8 6 -17 4 -28 -7z"/>
<path d="M705 1646 c-17 -7 -36 -25 -42 -39 -35 -76 -23 -205 23 -248 29 -27
79 -30 120 -8 38 20 84 120 83 179 0 40 -2 42 -11 22 -13 -27 -53 -39 -73 -22
-23 19 -19 67 6 81 21 11 21 11 -7 30 -34 22 -57 23 -99 5z"/>
<path d="M1349 1632 c-28 -25 -32 -35 -36 -99 -7 -93 2 -135 34 -167 30 -30
85 -35 121 -10 46 32 87 161 67 211 -6 17 -8 16 -15 -4 -12 -29 -40 -43 -67
-32 -33 12 -35 63 -3 90 18 16 18 17 -6 28 -39 17 -61 13 -95 -17z"/>
<path d="M1017 1393 c-12 -11 -8 -44 10 -73 14 -24 14 -31 4 -44 -15 -18 -66
-22 -76 -6 -3 6 -13 10 -21 10 -20 0 -18 -16 6 -40 26 -26 70 -25 105 1 16 13
30 18 33 12 10 -15 48 -33 70 -33 31 0 67 34 58 55 -6 16 -8 17 -24 1 -23 -20
-66 -21 -82 -1 -11 13 -10 22 3 51 30 61 24 74 -31 74 -27 0 -52 -3 -55 -7z
m63 -37 c0 -24 -15 -26 -28 -5 -11 16 -9 19 8 19 11 0 20 -6 20 -14z"/>
</g>
</svg>
